<svg width="178" height="29" viewBox="0 0 178 29" fill="none" xmlns="http://www.w3.org/2000/svg">
<path d="M151 13.469C151 10.4485 153.449 8 156.469 8H171.605C174.626 8 177.074 10.4485 177.074 13.469C177.074 16.4894 174.626 18.9379 171.605 18.9379H156.469C153.449 18.9379 151 16.4894 151 13.469Z" fill="#87BF10"/>
<rect x="138" y="17" width="26.0743" height="10.9379" rx="5.46895" fill="#FF6584"/>
<path d="M2.128 28V8.4H4.368L5.348 12.096V28H2.128ZM15.708 28L3.976 12.684L4.368 8.4L16.1 23.716L15.708 28ZM15.708 28L14.728 24.556V8.4H17.948V28H15.708ZM28.0223 28.28C26.6783 28.28 25.465 27.9813 24.3823 27.384C23.3183 26.768 22.469 25.928 21.8343 24.864C21.2183 23.8 20.9103 22.6053 20.9103 21.28C20.9103 19.9547 21.2183 18.7693 21.8343 17.724C22.4503 16.66 23.281 15.82 24.3263 15.204C25.3903 14.588 26.5663 14.28 27.8543 14.28C29.105 14.28 30.2063 14.5693 31.1583 15.148C32.129 15.7267 32.885 16.52 33.4263 17.528C33.9863 18.536 34.2663 19.684 34.2663 20.972C34.2663 21.196 34.2476 21.4293 34.2103 21.672C34.1916 21.896 34.1543 22.148 34.0983 22.428H23.0663V19.908H32.5023L31.3543 20.916C31.317 20.0947 31.1583 19.404 30.8783 18.844C30.5983 18.284 30.197 17.8547 29.6743 17.556C29.1703 17.2573 28.545 17.108 27.7983 17.108C27.0143 17.108 26.333 17.276 25.7543 17.612C25.1756 17.948 24.7276 18.424 24.4103 19.04C24.093 19.6373 23.9343 20.356 23.9343 21.196C23.9343 22.036 24.1023 22.7733 24.4383 23.408C24.7743 24.0427 25.2503 24.5373 25.8663 24.892C26.4823 25.228 27.1916 25.396 27.9943 25.396C28.685 25.396 29.3196 25.2747 29.8983 25.032C30.4956 24.7893 30.9996 24.4347 31.4103 23.968L33.3703 25.956C32.717 26.7213 31.9236 27.3 30.9903 27.692C30.057 28.084 29.0676 28.28 28.0223 28.28ZM42.2513 28.28C41.1127 28.28 40.0953 28.028 39.1993 27.524C38.322 27.02 37.6313 26.3293 37.1273 25.452C36.642 24.556 36.3993 23.5293 36.3993 22.372V14.56H39.4793V22.232C39.4793 22.8853 39.582 23.4453 39.7873 23.912C40.0113 24.36 40.3287 24.7053 40.7393 24.948C41.1687 25.1907 41.6727 25.312 42.2513 25.312C43.1473 25.312 43.8287 25.0507 44.2953 24.528C44.7807 23.9867 45.0233 23.2213 45.0233 22.232V14.56H48.1033V22.372C48.1033 23.548 47.8513 24.584 47.3473 25.48C46.862 26.3573 46.1807 27.048 45.3033 27.552C44.426 28.0373 43.4087 28.28 42.2513 28.28ZM53.8322 20.608V17.808H58.7322C59.4042 17.808 59.9922 17.6773 60.4962 17.416C61.0189 17.136 61.4295 16.7533 61.7282 16.268C62.0269 15.764 62.1762 15.176 62.1762 14.504C62.1762 13.832 62.0269 13.2533 61.7282 12.768C61.4295 12.264 61.0189 11.8813 60.4962 11.62C59.9922 11.34 59.4042 11.2 58.7322 11.2H53.8322V8.4H58.9002C60.1322 8.4 61.2335 8.652 62.2042 9.156C63.1935 9.66 63.9682 10.3693 64.5282 11.284C65.1069 12.1987 65.3962 13.272 65.3962 14.504C65.3962 15.736 65.1069 16.8093 64.5282 17.724C63.9682 18.6387 63.1935 19.348 62.2042 19.852C61.2335 20.356 60.1322 20.608 58.9002 20.608H53.8322ZM51.6202 28V8.4H54.8402V28H51.6202ZM73.575 28.28C72.2684 28.28 71.083 27.972 70.019 27.356C68.955 26.7213 68.1057 25.872 67.471 24.808C66.855 23.744 66.547 22.5587 66.547 21.252C66.547 19.9453 66.855 18.7693 67.471 17.724C68.1057 16.6787 68.955 15.848 70.019 15.232C71.083 14.5973 72.2684 14.28 73.575 14.28C74.9004 14.28 76.095 14.588 77.159 15.204C78.223 15.82 79.063 16.66 79.679 17.724C80.3137 18.7693 80.631 19.9453 80.631 21.252C80.631 22.5587 80.3137 23.744 79.679 24.808C79.063 25.872 78.223 26.7213 77.159 27.356C76.095 27.972 74.9004 28.28 73.575 28.28ZM73.575 25.312C74.3404 25.312 75.0124 25.144 75.591 24.808C76.1884 24.4533 76.6457 23.968 76.963 23.352C77.299 22.736 77.467 22.036 77.467 21.252C77.467 20.468 77.299 19.7773 76.963 19.18C76.627 18.5827 76.1697 18.116 75.591 17.78C75.0124 17.4253 74.3404 17.248 73.575 17.248C72.8284 17.248 72.1564 17.4253 71.559 17.78C70.9804 18.116 70.523 18.5827 70.187 19.18C69.8697 19.7773 69.711 20.468 69.711 21.252C69.711 22.036 69.8697 22.736 70.187 23.352C70.523 23.968 70.9804 24.4533 71.559 24.808C72.1564 25.144 72.8284 25.312 73.575 25.312ZM83.1924 28V14.56H86.2724V28H83.1924ZM86.2724 20.524L85.2084 19.992C85.2084 18.2933 85.5817 16.9213 86.3284 15.876C87.0937 14.812 88.2417 14.28 89.7724 14.28C90.4444 14.28 91.051 14.4013 91.5924 14.644C92.1337 14.8867 92.6377 15.2787 93.1044 15.82L91.0884 17.892C90.8457 17.6307 90.575 17.444 90.2764 17.332C89.9777 17.22 89.6324 17.164 89.2404 17.164C88.3817 17.164 87.6724 17.4347 87.1124 17.976C86.5524 18.5173 86.2724 19.3667 86.2724 20.524ZM96.6661 28V8.96H99.7461V28H96.6661ZM93.4461 17.36V14.56H102.966V17.36H93.4461ZM106.599 28.28C106.002 28.28 105.507 28.084 105.115 27.692C104.742 27.2813 104.555 26.7867 104.555 26.208C104.555 25.6107 104.742 25.116 105.115 24.724C105.507 24.332 106.002 24.136 106.599 24.136C107.196 24.136 107.682 24.332 108.055 24.724C108.447 25.116 108.643 25.6107 108.643 26.208C108.643 26.7867 108.447 27.2813 108.055 27.692C107.682 28.084 107.196 28.28 106.599 28.28ZM117.531 28.28C116.318 28.28 115.217 27.972 114.227 27.356C113.257 26.74 112.482 25.9093 111.903 24.864C111.343 23.8 111.063 22.6147 111.063 21.308C111.063 19.9827 111.343 18.7973 111.903 17.752C112.482 16.688 113.257 15.848 114.227 15.232C115.217 14.5973 116.318 14.28 117.531 14.28C118.558 14.28 119.463 14.504 120.247 14.952C121.05 15.3813 121.685 15.9787 122.151 16.744C122.618 17.5093 122.851 18.3773 122.851 19.348V23.212C122.851 24.1827 122.618 25.0507 122.151 25.816C121.703 26.5813 121.078 27.188 120.275 27.636C119.473 28.0653 118.558 28.28 117.531 28.28ZM118.035 25.368C119.174 25.368 120.089 24.9853 120.779 24.22C121.489 23.4547 121.843 22.4747 121.843 21.28C121.843 20.4773 121.685 19.768 121.367 19.152C121.05 18.536 120.602 18.06 120.023 17.724C119.463 17.3693 118.801 17.192 118.035 17.192C117.289 17.192 116.626 17.3693 116.047 17.724C115.487 18.06 115.039 18.536 114.703 19.152C114.386 19.768 114.227 20.4773 114.227 21.28C114.227 22.0827 114.386 22.792 114.703 23.408C115.039 24.024 115.487 24.5093 116.047 24.864C116.626 25.2 117.289 25.368 118.035 25.368ZM121.647 28V24.388L122.179 21.112L121.647 17.864V14.56H124.727V28H121.647ZM128.174 28V14.56H131.254V28H128.174ZM129.714 12.096C129.191 12.096 128.752 11.9187 128.398 11.564C128.062 11.2093 127.894 10.7707 127.894 10.248C127.894 9.72533 128.062 9.28667 128.398 8.932C128.752 8.57733 129.191 8.4 129.714 8.4C130.255 8.4 130.694 8.57733 131.03 8.932C131.366 9.28667 131.534 9.72533 131.534 10.248C131.534 10.7707 131.366 11.2093 131.03 11.564C130.694 11.9187 130.255 12.096 129.714 12.096Z" fill="black"/>
</svg>
