<svg width="303" height="238" viewBox="0 0 303 238" fill="none" xmlns="http://www.w3.org/2000/svg">
<g clip-path="url(#clip0_41_101)">
<path d="M55.5625 28.071C54.995 28.1336 54.4482 28.3197 53.9606 28.6163C53.4729 28.9129 53.0563 29.3128 52.74 29.7877C52.4237 30.2627 52.2155 30.8011 52.1299 31.3652C52.0444 31.9292 52.0837 32.5052 52.245 33.0524L40.9546 41.1151L47.6845 43.7033L57.3743 35.6501C58.2763 35.3183 59.0252 34.6675 59.4791 33.8208C59.933 32.9741 60.0603 31.9905 59.837 31.0563C59.6136 30.1221 59.0551 29.3022 58.2673 28.752C57.4795 28.2017 56.5171 27.9595 55.5625 28.071L55.5625 28.071Z" fill="#FFB8B8"/>
<path d="M54.5125 40.2155L40.5078 54.2977C38.5885 56.2151 36.0577 57.4 33.3551 57.6465L16.0499 59.2245C15.4155 59.2849 14.7754 59.2177 14.1674 59.0268C13.5595 58.8358 12.9959 58.5251 12.5102 58.1128C11.8382 57.5507 11.3384 56.8105 11.0684 55.9773C10.7984 55.1442 10.769 54.2518 10.9837 53.4027C11.1984 52.5536 11.6484 51.7822 12.282 51.1772C12.9156 50.5722 13.7072 50.1581 14.5657 49.9824L32.2448 46.2205L48.3404 34.3637C48.5641 34.2378 48.8169 34.1726 49.0737 34.1745C49.3304 34.1765 49.5822 34.2454 49.8041 34.3746L54.1812 37.9579C54.4446 38.1022 54.6561 38.3252 54.7862 38.5957C54.9163 38.8662 54.9584 39.1706 54.9065 39.4662C54.8555 39.7505 54.7179 40.0122 54.5125 40.2155Z" fill="#2F2E41"/>
<path d="M222.419 47.7835C222.524 46.8222 222.329 45.8521 221.862 45.0051C221.396 44.1581 220.679 43.4752 219.811 43.0494L132.654 0.478785C132.1 0.207803 131.498 0.0485686 130.882 0.0101778C130.266 -0.0282129 129.649 0.0549886 129.065 0.255033C128.481 0.455078 127.943 0.76805 127.48 1.17608C127.018 1.5841 126.64 2.07919 126.369 2.63308L126.367 2.63634L93.6778 69.4757C93.1322 70.5953 93.0531 71.8853 93.4578 73.0631C93.8625 74.2409 94.718 75.2102 95.8368 75.7586L182.993 118.329C184.114 118.874 185.405 118.953 186.583 118.549C187.762 118.145 188.732 117.29 189.28 116.172L221.97 49.3322C222.208 48.846 222.361 48.3219 222.419 47.7835Z" fill="#F2F2F2"/>
<path d="M171.36 196.134H58.2696C56.8458 196.132 55.4808 195.566 54.4741 194.56C53.4673 193.554 52.901 192.19 52.8994 190.767V37.3422C52.901 35.9194 53.4673 34.5553 54.4741 33.5492C55.4808 32.5431 56.8458 31.9771 58.2696 31.9755H171.36C172.783 31.9771 174.148 32.5431 175.155 33.5492C176.162 34.5553 176.728 35.9194 176.73 37.3422V190.767C176.728 192.19 176.162 193.554 175.155 194.56C174.148 195.566 172.783 196.132 171.36 196.134Z" fill="white"/>
<path d="M88.2649 77.7254C92.3398 77.7254 95.6431 74.4243 95.6431 70.352C95.6431 66.2798 92.3398 62.9786 88.2649 62.9786C84.19 62.9786 80.8867 66.2798 80.8867 70.352C80.8867 74.4243 84.19 77.7254 88.2649 77.7254Z" fill="#E6E6E6"/>
<path d="M77.0195 90.5044C78.0621 91.0967 79.1532 91.5992 80.2811 92.0065L80.4803 92.0755C82.7521 92.8725 85.1427 93.2783 87.5504 93.2755C88.0349 93.2755 88.5015 93.2586 88.9375 93.2257C89.9984 93.1607 91.0529 93.0154 92.0919 92.791C92.6621 92.6665 93.2304 92.5175 93.7804 92.3489C93.9134 92.3097 94.0366 92.2712 94.1714 92.229C96.4126 91.5027 98.5187 90.4121 100.405 89.001C100.253 88.7149 100.088 88.4365 99.9081 88.1671C98.9383 86.6863 97.6143 85.4705 96.056 84.6299C94.4976 83.7892 92.7541 83.3502 90.9832 83.3525H87.0999C85.0517 83.3529 83.0467 83.9416 81.3238 85.0485C79.6008 86.1554 78.2326 87.7338 77.3819 89.5958C77.2459 89.8924 77.1249 90.1956 77.0195 90.5044Z" fill="#E6E6E6"/>
<path d="M90.7686 92.6074C90.5208 92.6257 90.2823 92.7093 90.0774 92.8497C91.1185 92.785 92.1532 92.6414 93.1727 92.4204L90.7686 92.6074Z" fill="#2F2E41"/>
<path d="M88.7122 50.343C83.9602 50.3434 79.3413 51.9115 75.5724 54.8039C71.8034 57.6962 69.0953 61.751 67.8684 66.3389C66.6414 70.9268 66.9643 75.7911 68.7868 80.1768C70.6093 84.5626 73.8295 88.2244 77.9477 90.594C79.0409 91.2266 80.1884 91.7604 81.3766 92.189L81.5786 92.2588C83.8707 93.0631 86.2829 93.4725 88.7122 93.4696C89.182 93.4696 89.6519 93.4541 90.114 93.4192C91.1837 93.3535 92.2468 93.2069 93.2944 92.9807C93.8808 92.8526 94.4555 92.7012 94.9992 92.5344C95.1311 92.4956 95.2553 92.4568 95.3913 92.4141C100.275 90.8243 104.432 87.5457 107.113 83.1677C109.795 78.7896 110.826 73.5992 110.021 68.5295C109.216 63.4597 106.628 58.8431 102.722 55.5095C98.8164 52.1759 93.8487 50.344 88.7122 50.343L88.7122 50.343ZM101.232 88.0599C99.3702 89.4954 97.2749 90.5994 95.038 91.3236C94.9176 91.3624 94.7932 91.4012 94.669 91.44C94.1525 91.5991 93.6089 91.7388 93.0497 91.8591C92.0587 92.0753 91.0526 92.2154 90.0402 92.2782C89.6015 92.3092 89.1547 92.3248 88.7122 92.3248C86.4127 92.3262 84.1295 91.9391 81.9591 91.18L81.7689 91.114C80.587 90.6895 79.448 90.1542 78.3671 89.5151C74.6025 87.3003 71.6481 83.9371 69.938 79.9199C68.2278 75.9026 67.8521 71.4431 68.8661 67.1966C69.88 62.9502 72.2302 59.1407 75.5712 56.328C78.9122 53.5153 83.0679 51.8477 87.4275 51.5702C91.7872 51.2927 96.121 52.42 99.7921 54.7864C103.463 57.1528 106.278 60.6336 107.823 64.7171C109.368 68.8007 109.561 73.2718 108.375 77.4734C107.188 81.6751 104.685 85.3856 101.232 88.0598V88.0599Z" fill="#CCCCCC"/>
<path d="M171.36 196.134H58.2696C56.8458 196.132 55.4808 195.566 54.4741 194.56C53.4673 193.554 52.901 192.19 52.8994 190.767V37.3422C52.901 35.9194 53.4673 34.5553 54.4741 33.5492C55.4808 32.5431 56.8458 31.9771 58.2696 31.9755H171.36C172.783 31.9771 174.148 32.5431 175.155 33.5492C176.162 34.5553 176.728 35.9194 176.73 37.3422V190.767C176.728 192.19 176.162 193.554 175.155 194.56C174.148 195.566 172.783 196.132 171.36 196.134ZM58.2696 32.6069C57.0133 32.6083 55.8089 33.1077 54.9206 33.9954C54.0323 34.8832 53.5326 36.0868 53.5312 37.3422V190.767C53.5326 192.023 54.0323 193.226 54.9206 194.114C55.8089 195.002 57.0133 195.501 58.2696 195.502H171.36C172.616 195.501 173.82 195.002 174.709 194.114C175.597 193.226 176.097 192.023 176.098 190.767V37.3422C176.097 36.0868 175.597 34.8832 174.709 33.9954C173.82 33.1077 172.616 32.6083 171.36 32.6069L58.2696 32.6069Z" fill="#CCCCCC"/>
<path d="M149.467 71.8231H117.466C116.795 71.8231 116.151 71.5565 115.676 71.082C115.201 70.6076 114.935 69.9641 114.935 69.2931C114.935 68.6221 115.201 67.9786 115.676 67.5041C116.151 67.0297 116.795 66.7631 117.466 66.7631H149.467C150.138 66.7631 150.782 67.0297 151.257 67.5041C151.732 67.9786 151.998 68.6221 151.998 69.2931C151.998 69.9641 151.732 70.6076 151.257 71.082C150.782 71.5565 150.138 71.8231 149.467 71.8231Z" fill="#E6E6E6"/>
<path d="M159.91 80.3617H117.466C116.795 80.3617 116.151 80.0951 115.676 79.6207C115.201 79.1462 114.935 78.5027 114.935 77.8317C114.935 77.1607 115.201 76.5172 115.676 76.0428C116.151 75.5683 116.795 75.3018 117.466 75.3018H159.91C160.581 75.3018 161.225 75.5683 161.7 76.0428C162.175 76.5172 162.441 77.1607 162.441 77.8317C162.441 78.5027 162.175 79.1462 161.7 79.6207C161.225 80.0951 160.581 80.3617 159.91 80.3617Z" fill="#E6E6E6"/>
<path d="M149.42 113.111H69.7196C69.0482 113.111 68.4042 112.844 67.9295 112.37C67.4547 111.895 67.188 111.252 67.188 110.581C67.188 109.91 67.4547 109.266 67.9295 108.792C68.4042 108.318 69.0482 108.051 69.7196 108.051H149.42C150.092 108.051 150.736 108.318 151.21 108.792C151.685 109.266 151.952 109.91 151.952 110.581C151.952 111.252 151.685 111.895 151.21 112.37C150.736 112.844 150.092 113.111 149.42 113.111Z" fill="#E6E6E6"/>
<path d="M159.863 121.65H69.7196C69.0482 121.65 68.4042 121.383 67.9295 120.909C67.4547 120.434 67.188 119.791 67.188 119.12C67.188 118.449 67.4547 117.805 67.9295 117.331C68.4042 116.856 69.0482 116.59 69.7196 116.59H159.863C160.535 116.59 161.178 116.856 161.653 117.331C162.128 117.805 162.395 118.449 162.395 119.12C162.395 119.791 162.128 120.434 161.653 120.909C161.178 121.383 160.535 121.65 159.863 121.65Z" fill="#E6E6E6"/>
<path d="M149.42 141.275H69.7196C69.0482 141.275 68.4042 141.008 67.9295 140.534C67.4547 140.059 67.188 139.416 67.188 138.745C67.188 138.074 67.4547 137.43 67.9295 136.956C68.4042 136.481 69.0482 136.215 69.7196 136.215H149.42C150.092 136.215 150.736 136.481 151.21 136.956C151.685 137.43 151.952 138.074 151.952 138.745C151.952 139.416 151.685 140.059 151.21 140.534C150.736 141.008 150.092 141.275 149.42 141.275Z" fill="#E6E6E6"/>
<path d="M159.863 149.813H69.7196C69.0482 149.813 68.4042 149.547 67.9295 149.072C67.4547 148.598 67.188 147.954 67.188 147.283C67.188 146.612 67.4547 145.969 67.9295 145.494C68.4042 145.02 69.0482 144.753 69.7196 144.753H159.863C160.535 144.753 161.178 145.02 161.653 145.494C162.128 145.969 162.395 146.612 162.395 147.283C162.395 147.954 162.128 148.598 161.653 149.072C161.178 149.547 160.535 149.813 159.863 149.813Z" fill="#E6E6E6"/>
<path d="M149.42 169.438H69.7196C69.0482 169.438 68.4042 169.172 67.9295 168.697C67.4547 168.223 67.188 167.579 67.188 166.908C67.188 166.237 67.4547 165.594 67.9295 165.119C68.4042 164.645 69.0482 164.378 69.7196 164.378H149.42C150.092 164.378 150.736 164.645 151.21 165.119C151.685 165.594 151.952 166.237 151.952 166.908C151.952 167.579 151.685 168.223 151.21 168.697C150.736 169.172 150.092 169.438 149.42 169.438Z" fill="#E6E6E6"/>
<path d="M159.863 177.977H69.7196C69.0482 177.977 68.4042 177.71 67.9295 177.236C67.4547 176.762 67.188 176.118 67.188 175.447C67.188 174.776 67.4547 174.133 67.9295 173.658C68.4042 173.184 69.0482 172.917 69.7196 172.917H159.863C160.534 172.918 161.177 173.185 161.651 173.659C162.125 174.134 162.392 174.777 162.392 175.447C162.392 176.117 162.125 176.761 161.651 177.235C161.177 177.709 160.534 177.976 159.863 177.977Z" fill="#E6E6E6"/>
<path d="M218.536 91.6358C218.64 90.6745 218.446 89.7045 217.979 88.8575C217.512 88.0104 216.796 87.3276 215.927 86.9017L128.771 44.3311C128.217 44.0602 127.614 43.9009 126.998 43.8625C126.383 43.8241 125.765 43.9073 125.182 44.1074C124.598 44.3074 124.06 44.6204 123.597 45.0284C123.134 45.4365 122.757 45.9315 122.485 46.4854L122.484 46.4887L89.7945 113.328C89.2489 114.448 89.1698 115.738 89.5745 116.915C89.9792 118.093 90.8347 119.063 91.9535 119.611L179.11 162.182C180.23 162.727 181.521 162.806 182.7 162.401C183.878 161.997 184.848 161.142 185.397 160.024L218.086 93.1846C218.325 92.6984 218.477 92.1743 218.536 91.6358Z" fill="white"/>
<path d="M218.536 91.6358C218.64 90.6745 218.446 89.7045 217.979 88.8575C217.512 88.0104 216.796 87.3276 215.927 86.9017L128.771 44.3311C128.217 44.0602 127.614 43.9009 126.998 43.8625C126.383 43.8241 125.765 43.9073 125.182 44.1074C124.598 44.3074 124.06 44.6204 123.597 45.0284C123.134 45.4365 122.757 45.9315 122.485 46.4854L122.484 46.4887L89.7945 113.328C89.2489 114.448 89.1698 115.738 89.5745 116.915C89.9792 118.093 90.8347 119.063 91.9535 119.611L179.11 162.182C180.23 162.727 181.521 162.806 182.7 162.401C183.878 161.997 184.848 161.142 185.397 160.024L218.086 93.1846C218.325 92.6984 218.477 92.1743 218.536 91.6358ZM184.9 159.781C184.416 160.768 183.56 161.522 182.52 161.879C181.48 162.236 180.341 162.166 179.353 161.685L92.1963 119.114C91.209 118.631 90.454 117.775 90.0969 116.736C89.7398 115.697 89.8097 114.559 90.2913 113.571L122.981 46.7314C123.465 45.7447 124.321 44.9902 125.36 44.6333C126.4 44.2765 127.54 44.3463 128.528 44.8276L215.685 87.3982C216.672 87.8819 217.427 88.7372 217.784 89.7765C218.141 90.8157 218.071 91.9541 217.589 92.9419L184.9 159.781Z" fill="#3F3D56"/>
<path d="M209.03 94.675L186.204 141.347C186.051 141.658 185.782 141.897 185.453 142.01C185.125 142.122 184.766 142.1 184.454 141.948H184.454L105.173 103.224C105.117 103.197 105.062 103.165 105.011 103.129C104.751 102.952 104.564 102.688 104.483 102.384C104.403 102.08 104.434 101.757 104.572 101.475L127.398 54.8031C127.474 54.6488 127.579 54.5109 127.707 54.3972C127.836 54.2835 127.986 54.1962 128.148 54.1404C128.311 54.0846 128.483 54.0613 128.654 54.0719C128.826 54.0824 128.993 54.1266 129.148 54.202L208.429 92.9257C208.74 93.0778 208.979 93.3475 209.092 93.6755C209.204 94.0034 209.182 94.3626 209.03 94.6742V94.6743L209.03 94.675Z" fill="#E6E6E6"/>
<path d="M139.427 92.3048C145.768 92.3048 150.909 87.1677 150.909 80.8307C150.909 74.4938 145.768 69.3567 139.427 69.3567C133.086 69.3567 127.946 74.4938 127.946 80.8307C127.946 87.1677 133.086 92.3048 139.427 92.3048Z" fill="#FF6685"/>
<path d="M156.238 128.398L105.634 103.681C105.57 103.651 105.51 103.615 105.452 103.574L149.648 73.8347C149.92 73.648 150.237 73.5369 150.566 73.5127C150.895 73.4885 151.225 73.5521 151.522 73.697C151.819 73.8419 152.071 74.0629 152.255 74.3374C152.438 74.6119 152.545 74.9301 152.565 75.2594L155.03 110.907L155.149 112.613L156.238 128.398Z" fill="#3F3D56"/>
<path opacity="0.2" d="M156.238 128.398L138.961 119.959L153.464 111.79L154.508 111.202L155.03 110.907L155.148 112.613L156.238 128.398Z" fill="black"/>
<path d="M184.414 142.16L140.646 120.782L155.148 112.613L156.193 112.024L175.092 101.378C176.33 100.681 178.106 101.467 178.508 102.801C178.535 102.892 178.555 102.984 178.57 103.077L184.414 142.16Z" fill="#3F3D56"/>
<path d="M49.3686 146.234L54.1291 146.234L56.3942 127.882L49.3674 127.883L49.3686 146.234Z" fill="#FFB8B8"/>
<path d="M48.1541 144.681L57.5297 144.68H57.5301C58.3147 144.68 59.0917 144.835 59.8166 145.135C60.5416 145.435 61.2002 145.875 61.7551 146.429C62.3099 146.984 62.75 147.642 63.0503 148.366C63.3505 149.091 63.5051 149.867 63.5051 150.651V150.845L48.1543 150.846L48.1541 144.681Z" fill="#2F2E41"/>
<path d="M12.3638 143.205L17.2963 144.169L23.365 125.615L16.0855 124.192L12.3638 143.205Z" fill="#FFB8B8"/>
<path d="M11.4209 141.349L21.1346 143.248L21.135 143.248C21.9479 143.407 22.7216 143.725 23.4118 144.182C24.102 144.64 24.6952 145.229 25.1576 145.916C25.6199 146.603 25.9424 147.374 26.1065 148.185C26.2707 148.997 26.2733 149.833 26.1142 150.645L26.0749 150.846L10.1707 147.737L11.4209 141.349Z" fill="#2F2E41"/>
<path d="M56.2946 82.9309C56.1334 82.3836 55.8541 81.8783 55.4764 81.4506C55.0986 81.0228 54.6316 80.683 54.1083 80.4552C53.5849 80.2273 53.0179 80.1169 52.4472 80.1317C51.8766 80.1465 51.3161 80.2861 50.8052 80.5408L40.8819 70.847L39.5127 77.9224L49.146 86.043C49.631 86.8723 50.4036 87.4949 51.3173 87.7929C52.231 88.091 53.2223 88.0437 54.1035 87.6601C54.9847 87.2765 55.6944 86.5832 56.0982 85.7116C56.5021 84.84 56.5719 83.8506 56.2946 82.9309Z" fill="#FFB8B8"/>
<path d="M19.4779 33.0355C24.7454 33.0355 29.0156 28.7681 29.0156 23.504C29.0156 18.2399 24.7454 13.9725 19.4779 13.9725C14.2104 13.9725 9.94019 18.2399 9.94019 23.504C9.94019 28.7681 14.2104 33.0355 19.4779 33.0355Z" fill="#FFB8B8"/>
<path d="M17.4751 33.1814C17.9819 33.403 19.0196 29.3677 18.5547 28.5606C17.8634 27.3603 17.9043 27.3689 17.4454 26.5748C16.9865 25.7807 16.8838 24.6938 17.4781 23.9951C18.0724 23.2963 19.4476 23.389 19.7189 24.2651C19.5444 22.6011 21.1914 21.2635 22.8228 20.8876C24.4542 20.5117 26.175 20.7451 27.8153 20.4106C29.7191 20.0224 31.6998 18.4277 30.9403 16.3356C30.8099 15.9872 30.6148 15.6667 30.3651 15.391C29.4876 14.4049 28.26 13.9838 27.0597 13.5767C24.5628 12.7298 21.9975 11.8722 19.3623 11.9657C17.191 12.0791 15.0999 12.8227 13.3449 14.1053C11.5899 15.3879 10.2471 17.154 9.48082 19.1874C9.29921 19.6961 9.15852 20.2185 9.06009 20.7496C8.15559 25.6099 10.9798 30.404 15.567 32.2548L17.4751 33.1814Z" fill="#2F2E41"/>
<path d="M15.1332 85.5419C14.89 85.3949 14.695 85.18 14.5724 84.9238C14.4497 84.6675 14.4047 84.381 14.4428 84.0995L10.139 62.7937L5.77642 46.4423H5.77651C5.29757 44.6506 5.44222 42.7494 6.18672 41.0506C6.93122 39.3519 8.23136 37.9565 9.87385 37.0933L12.7579 34.3661L19.0498 37.0751L22.0395 40.113C24.1838 41.1564 26.086 42.6367 27.6238 44.4586C29.1615 46.2806 30.3007 48.4039 30.9683 50.6922L35.7635 67.0902L46.8375 83.5549C47.0224 83.8293 47.1089 84.1581 47.0829 84.4879C47.0568 84.8177 46.9198 85.1289 46.6941 85.3709C45.1535 87.0271 15.1332 85.5419 15.1332 85.5419Z" fill="#2F2E41"/>
<path d="M44.1464 84.0282L27.817 72.7199C25.5914 71.168 23.9801 68.8858 23.2632 66.2701L18.6731 49.5211C18.5023 48.9076 18.4562 48.266 18.5376 47.6343C18.6191 47.0027 18.8264 46.3937 19.1474 45.8435C19.5832 45.0837 20.2247 44.4622 20.9981 44.0504C21.7715 43.6386 22.6455 43.4532 23.5197 43.5154C24.3938 43.5777 25.2326 43.8851 25.9398 44.4024C26.647 44.9196 27.1938 45.6258 27.5174 46.4396L34.3246 63.1734L48.8286 76.9292C48.9918 77.1273 49.1004 77.3646 49.1436 77.6175C49.1867 77.8705 49.163 78.1303 49.0746 78.3712L46.3124 83.3063C46.2165 83.5907 46.0339 83.8379 45.7902 84.0134C45.5466 84.1888 45.2541 84.2836 44.9538 84.2844C44.6647 84.2841 44.3828 84.1946 44.1464 84.0282Z" fill="#2F2E41"/>
<path d="M10.2222 140.365C10.0887 140.173 10.0032 139.953 9.97296 139.722C9.94271 139.49 9.9686 139.255 10.0484 139.036L17.6028 111.592L18.1612 84.7002L43.5912 82.9573L43.7147 82.9489L51.3741 96.8222C53.7721 101.16 55.2401 105.949 55.6846 110.884L58.2087 138.526C58.2469 138.902 58.136 139.278 57.9 139.573C57.6639 139.868 57.3216 140.058 56.9464 140.104L49.2787 140.833C48.9092 140.878 48.5368 140.776 48.2409 140.551C47.945 140.325 47.749 139.993 47.6947 139.625L44.5811 111.535L33.378 92.6185L29.6175 112.534L21.8265 140.036C21.7247 140.311 21.5417 140.548 21.3018 140.716C21.0619 140.884 20.7766 140.975 20.4836 140.978L11.3967 140.981C11.1654 140.983 10.9373 140.927 10.7325 140.819C10.5277 140.712 10.3525 140.556 10.2222 140.365Z" fill="#2F2E41"/>
<path d="M204.94 230.627H13.3148C9.91725 230.623 6.66 229.272 4.2576 226.871C1.85519 224.471 0.503838 221.215 0.5 217.82V112.652C0.503838 109.257 1.85519 106.002 4.2576 103.601C6.66 101.2 9.91725 99.8495 13.3148 99.8457H36.8095C39.9974 99.8429 43.0713 101.03 45.4285 103.175L70.9072 121.357C72.5682 122.874 74.7376 123.714 76.9878 123.712H206.13C207.828 123.712 209.51 124.05 211.077 124.705C212.644 125.36 214.065 126.321 215.257 127.53C216.449 128.739 217.389 130.173 218.022 131.748C218.655 133.323 218.968 135.009 218.943 136.706L217.753 218.007C217.69 221.367 216.314 224.568 213.92 226.926C211.525 229.285 208.302 230.613 204.94 230.627Z" fill="white"/>
<path d="M203.238 224.417H14.4485C12.8095 224.416 11.2382 223.764 10.0793 222.606C8.92035 221.448 8.26845 219.877 8.2666 218.239V111.352C8.26846 109.714 8.92036 108.144 10.0793 106.985C11.2382 105.827 12.8096 105.176 14.4485 105.174C15.8982 105.176 17.288 105.752 18.3131 106.776C19.3382 107.801 19.9148 109.189 19.9164 110.638V210.866C19.9181 212.401 20.5291 213.873 21.6152 214.958C22.7014 216.044 24.174 216.654 25.71 216.656H202.6C203.479 216.646 204.335 216.931 205.033 217.464C205.731 217.998 206.23 218.75 206.45 219.6C206.697 220.407 206.666 221.272 206.363 222.059C206.06 222.846 205.502 223.508 204.778 223.941C204.319 224.24 203.785 224.405 203.238 224.417Z" fill="#F2F2F2"/>
<path d="M110.561 173.086L110.064 172.589C109.961 172.493 109.901 172.359 109.896 172.218C109.891 172.078 109.943 171.941 110.039 171.838C110.047 171.829 110.056 171.821 110.064 171.813L114.425 167.451C114.473 167.4 114.53 167.359 114.594 167.33C114.657 167.301 114.726 167.285 114.796 167.283C114.866 167.281 114.935 167.292 115.001 167.317C115.066 167.341 115.126 167.379 115.177 167.426C115.185 167.434 115.194 167.443 115.202 167.451L119.563 171.809C119.614 171.858 119.654 171.917 119.683 171.982C119.711 172.047 119.726 172.117 119.727 172.188C119.729 172.259 119.716 172.329 119.69 172.395C119.664 172.461 119.625 172.521 119.576 172.572L119.563 172.585L119.066 173.082C119.016 173.133 118.957 173.174 118.892 173.202C118.827 173.23 118.758 173.245 118.687 173.247C118.616 173.248 118.545 173.235 118.479 173.209C118.413 173.183 118.353 173.145 118.302 173.095L118.289 173.082L115.71 170.365V176.811C115.711 176.882 115.698 176.951 115.671 177.017C115.645 177.082 115.606 177.141 115.556 177.191C115.507 177.241 115.448 177.281 115.383 177.309C115.318 177.336 115.249 177.35 115.178 177.351L115.174 177.351H114.456C114.313 177.351 114.176 177.294 114.074 177.193C113.973 177.092 113.916 176.954 113.916 176.811V170.373L111.338 173.09C111.238 173.192 111.101 173.251 110.958 173.253C110.815 173.254 110.677 173.199 110.575 173.099L110.561 173.086Z" fill="#FF6685"/>
<path d="M114.805 163.489C116.556 163.489 118.267 164.008 119.722 164.979C121.178 165.951 122.312 167.332 122.982 168.948C123.652 170.565 123.827 172.343 123.485 174.058C123.144 175.774 122.301 177.35 121.063 178.587C119.826 179.824 118.249 180.666 116.532 181.007C114.815 181.349 113.036 181.173 111.419 180.504C109.802 179.835 108.419 178.701 107.447 177.247C106.475 175.792 105.956 174.082 105.956 172.333C105.958 169.988 106.891 167.74 108.55 166.081C110.209 164.423 112.459 163.491 114.805 163.489ZM114.805 162.325C112.825 162.325 110.888 162.912 109.241 164.011C107.595 165.111 106.311 166.674 105.553 168.503C104.795 170.332 104.597 172.344 104.983 174.286C105.369 176.227 106.323 178.01 107.724 179.41C109.124 180.81 110.909 181.763 112.852 182.149C114.794 182.535 116.808 182.337 118.638 181.58C120.468 180.822 122.032 179.539 123.133 177.893C124.233 176.248 124.82 174.312 124.82 172.333C124.82 169.679 123.765 167.133 121.887 165.256C120.009 163.379 117.462 162.325 114.805 162.325Z" fill="#3F3D56"/>
<path d="M204.94 230.627H13.3148C9.91725 230.623 6.66 229.272 4.2576 226.871C1.85519 224.471 0.503838 221.215 0.5 217.82V112.652C0.503838 109.257 1.85519 106.002 4.2576 103.601C6.66 101.2 9.91725 99.8495 13.3148 99.8457H36.8095C39.9974 99.8429 43.0713 101.03 45.4285 103.175L70.9072 121.357C72.5682 122.874 74.7376 123.714 76.9878 123.712H206.13C207.828 123.712 209.51 124.05 211.077 124.705C212.644 125.36 214.065 126.321 215.257 127.53C216.449 128.739 217.389 130.173 218.022 131.748C218.655 133.323 218.968 135.009 218.943 136.706L217.753 218.007C217.69 221.367 216.314 224.568 213.92 226.926C211.525 229.285 208.302 230.613 204.94 230.627ZM13.3148 100.622C10.1232 100.625 7.06334 101.894 4.80654 104.149C2.54974 106.405 1.28028 109.463 1.27665 112.652V217.82C1.28028 221.01 2.54974 224.068 4.80654 226.323C7.06334 228.578 10.1232 229.847 13.3148 229.85H204.94C208.098 229.838 211.126 228.59 213.376 226.374C215.625 224.159 216.918 221.152 216.977 217.996L218.167 136.695C218.19 135.1 217.896 133.517 217.301 132.037C216.707 130.557 215.824 129.21 214.704 128.074C213.584 126.939 212.249 126.037 210.777 125.421C209.305 124.805 207.725 124.488 206.13 124.488H76.9878C74.552 124.49 72.2031 123.584 70.401 121.946L44.9224 103.764C42.7061 101.74 39.8118 100.619 36.8095 100.622H13.3148Z" fill="#3F3D56"/>
<path d="M221.18 232.674H216.419L214.931 214.323L221.181 214.323L221.18 232.674Z" fill="#FFB8B8"/>
<path d="M222.394 237.286L207.043 237.286V237.091C207.043 236.307 207.198 235.531 207.498 234.806C207.798 234.082 208.238 233.424 208.793 232.869C209.348 232.315 210.007 231.875 210.732 231.575C211.457 231.275 212.234 231.12 213.018 231.12H213.019L222.394 231.121L222.394 237.286Z" fill="#2F2E41"/>
<path d="M274.381 232.674H269.62L267.355 214.323L274.381 214.323L274.381 232.674Z" fill="#FFB8B8"/>
<path d="M275.595 237.286L260.244 237.286V237.091C260.244 236.307 260.398 235.531 260.699 234.806C260.999 234.082 261.439 233.424 261.994 232.869C262.549 232.315 263.207 231.875 263.932 231.575C264.657 231.275 265.434 231.12 266.219 231.12H266.219L275.595 231.121L275.595 237.286Z" fill="#2F2E41"/>
<path d="M258.727 175.943C259.384 175.174 259.754 174.2 259.775 173.188C259.796 172.177 259.465 171.189 258.84 170.393C258.713 170.241 258.574 170.099 258.424 169.97L262.01 156.74L256.033 158.721L253.544 170.981C253.131 171.737 252.949 172.597 253.019 173.456C253.089 174.314 253.409 175.133 253.939 175.812C254.217 176.179 254.573 176.478 254.982 176.688C255.391 176.899 255.842 177.014 256.302 177.027C256.761 177.039 257.218 176.949 257.638 176.761C258.057 176.574 258.43 176.294 258.727 175.943Z" fill="#FFB8B8"/>
<path d="M258.497 167.805C258.422 167.805 258.347 167.799 258.273 167.788L255.158 167.319C254.916 167.277 254.686 167.183 254.484 167.043C254.282 166.903 254.113 166.721 253.989 166.509C253.719 166.057 253.622 165.523 253.716 165.006L257.601 143.32L254.966 129.387C254.458 126.706 255.768 123.998 258.015 123.088C258.681 122.816 259.407 122.721 260.121 122.812C260.835 122.903 261.513 123.178 262.089 123.61C262.711 124.08 263.226 124.676 263.602 125.359C263.979 126.041 264.207 126.795 264.272 127.571L266.137 145.336L266.115 145.413L260.113 166.466C260.026 166.834 259.822 167.165 259.53 167.407C259.238 167.648 258.875 167.788 258.497 167.805Z" fill="#FF6685"/>
<path d="M257.577 115.41C262.845 115.41 267.115 111.143 267.115 105.879C267.115 100.615 262.845 96.3472 257.577 96.3472C252.309 96.3472 248.039 100.615 248.039 105.879C248.039 111.143 252.309 115.41 257.577 115.41Z" fill="#FFB8B8"/>
<path d="M252.694 150.185C252.456 150.185 252.221 150.141 251.999 150.056L236.924 144.261C236.516 144.106 236.173 143.817 235.95 143.441C235.727 143.066 235.637 142.626 235.696 142.194L236.302 137.656C235.943 136.048 235.976 134.376 236.398 132.783C236.82 131.19 237.62 129.721 238.729 128.501L239.096 128.098L243.556 119.97C243.858 119.419 244.266 118.934 244.757 118.542C245.248 118.149 245.812 117.858 246.416 117.685C247.02 117.511 247.652 117.459 248.276 117.531C248.9 117.603 249.504 117.798 250.053 118.104L257.929 122.503C258.966 123.081 259.748 124.026 260.123 125.151C261.183 128.338 261.104 131.794 259.901 134.929L254.508 148.941C254.366 149.307 254.116 149.621 253.793 149.843C253.469 150.064 253.086 150.184 252.694 150.185Z" fill="#FF6685"/>
<path d="M213.186 228.168L213.166 228.164C212.909 228.115 212.664 228.014 212.447 227.868C212.23 227.721 212.045 227.533 211.903 227.313C211.76 227.093 211.664 226.847 211.619 226.589C211.575 226.332 211.583 226.067 211.643 225.813L223.195 175.348C225.086 167.348 227.699 159.536 231.001 152.007L235.916 140.808L254.255 149.175L256.874 153.961C258.915 159.291 259.965 164.95 259.971 170.657L278.605 225.233C278.696 225.499 278.728 225.782 278.699 226.062C278.669 226.342 278.579 226.612 278.435 226.854C278.29 227.096 278.095 227.303 277.862 227.462C277.63 227.621 277.365 227.727 277.087 227.773L266.886 227.658C266.79 227.675 266.692 227.683 266.595 227.683C266.208 227.683 265.83 227.567 265.51 227.35C265.19 227.133 264.943 226.825 264.8 226.466L243.499 171.287C243.468 171.214 243.416 171.152 243.35 171.109C243.283 171.066 243.205 171.044 243.125 171.047C243.048 171.048 242.972 171.073 242.91 171.119C242.847 171.164 242.8 171.228 242.775 171.302L222.563 226.755C222.408 227.186 222.105 227.548 221.707 227.776C221.31 228.005 220.844 228.084 220.393 228.001L213.186 228.168Z" fill="#2F2E41"/>
<path d="M227.132 166.109C227.67 165.918 228.16 165.611 228.566 165.211C228.973 164.81 229.286 164.325 229.485 163.79C229.683 163.255 229.762 162.684 229.716 162.115C229.669 161.546 229.499 160.995 229.216 160.499L238.35 150.06L231.205 149.086L223.627 159.149C222.825 159.679 222.246 160.484 221.999 161.412C221.752 162.341 221.854 163.327 222.286 164.185C222.718 165.043 223.45 165.713 224.343 166.067C225.237 166.422 226.229 166.437 227.132 166.109Z" fill="#FFB8B8"/>
<path d="M231.438 158.755C231.121 158.755 230.808 158.677 230.527 158.528L227.312 156.814C227.076 156.689 226.869 156.515 226.703 156.306C226.537 156.096 226.417 155.855 226.349 155.597C226.28 155.338 226.266 155.069 226.307 154.805C226.348 154.541 226.443 154.288 226.587 154.062L238.459 135.366L240.518 121.257C240.625 120.528 240.878 119.828 241.263 119.199C241.648 118.571 242.157 118.027 242.758 117.601C243.36 117.174 244.042 116.875 244.763 116.719C245.483 116.564 246.228 116.556 246.952 116.697C247.676 116.838 248.364 117.124 248.974 117.538C249.584 117.952 250.103 118.486 250.501 119.106C250.898 119.727 251.166 120.422 251.287 121.149C251.408 121.876 251.38 122.62 251.205 123.336L246.955 140.726L232.951 158.035C232.769 158.261 232.538 158.443 232.276 158.567C232.015 158.692 231.728 158.756 231.438 158.755Z" fill="#FF6685"/>
<path d="M248.992 98.0143C250.095 94.3989 256.469 92.7859 261.767 94.286C267.065 95.786 270.871 99.719 271.757 103.564C273.719 112.08 263.486 118.99 265.34 127.507C266.567 133.141 273.664 138.468 281.658 139.755C272.849 141.597 262.096 139.978 253.927 135.579C248.843 132.842 244.578 128.711 244.642 124.544C244.681 122.022 246.287 119.791 248.251 117.863C250.215 115.936 252.566 114.223 254.368 112.211C256.17 110.199 257.419 107.791 256.893 105.237C256.367 102.683 253.695 100.02 250.1 99.2767L248.992 98.0143Z" fill="#2F2E41"/>
<path d="M302.112 238H154.159C154.056 238 153.958 237.959 153.885 237.886C153.812 237.814 153.771 237.715 153.771 237.612C153.771 237.509 153.812 237.41 153.885 237.338C153.958 237.265 154.056 237.224 154.159 237.224H302.112C302.215 237.224 302.313 237.265 302.386 237.338C302.459 237.41 302.5 237.509 302.5 237.612C302.5 237.715 302.459 237.814 302.386 237.886C302.313 237.959 302.215 238 302.112 238Z" fill="#CCCCCC"/>
</g>
<defs>
<clipPath id="clip0_41_101">
<rect width="302" height="238" fill="white" transform="translate(0.5)"/>
</clipPath>
</defs>
</svg>
